/* XPM */
static char * C:\Users\usuario\Documents\cannibal_xpm[] = {
"32 32 405 2",
"  	c None",
". 	c #275C54",
"+ 	c #737986",
"@ 	c #47823B",
"# 	c #3E7840",
"$ 	c #255A55",
"% 	c #BAAAAB",
"& 	c #60797F",
"* 	c #579038",
"= 	c #529422",
"- 	c #498535",
"; 	c #CBA5A2",
"> 	c #AAB3B7",
", 	c #649C33",
"' 	c #5A9E0F",
") 	c #488630",
"! 	c #4B7F45",
"~ 	c #5A9A19",
"{ 	c #376F3E",
"] 	c #6B4450",
"^ 	c #C57C77",
"/ 	c #D6D7D8",
"( 	c #75888E",
"_ 	c #3E6F4D",
": 	c #6DA530",
"< 	c #5C9E11",
"[ 	c #54961B",
"} 	c #62983C",
"| 	c #5C9E12",
"1 	c #417C36",
"2 	c #BC4C4B",
"3 	c #D7CFCD",
"4 	c #A5AFB4",
"5 	c #3F6F43",
"6 	c #71A931",
"7 	c #5E9F15",
"8 	c #407B34",
"9 	c #417347",
"0 	c #6DA531",
"a 	c #5C9F10",
"b 	c #49872F",
"c 	c #457744",
"d 	c #386A4A",
"e 	c #B03B42",
"f 	c #CFAEAA",
"g 	c #A1ABB1",
"h 	c #457844",
"i 	c #72AA32",
"j 	c #609F1B",
"k 	c #5B9F0D",
"l 	c #4D8C2A",
"m 	c #558843",
"n 	c #6DA52D",
"o 	c #5B9E0F",
"p 	c #519224",
"q 	c #528542",
"r 	c #6CA337",
"s 	c #3F714F",
"t 	c #AAB5B9",
"u 	c #84949A",
"v 	c #953E46",
"w 	c #C67772",
"x 	c #CCCED0",
"y 	c #AEB7BC",
"z 	c #5B836A",
"A 	c #72AA33",
"B 	c #65A122",
"C 	c #579A16",
"D 	c #2F6445",
"E 	c #649A3D",
"F 	c #6CA52C",
"G 	c #5B9E0E",
"H 	c #55971C",
"I 	c #568A40",
"J 	c #679E3B",
"K 	c #8799A1",
"L 	c #E7EAE7",
"M 	c #D7D8D8",
"N 	c #87969A",
"O 	c #6D444A",
"P 	c #C34040",
"Q 	c #D3C1BF",
"R 	c #DFDFE0",
"S 	c #B5BFC0",
"T 	c #669A4F",
"U 	c #5E9237",
"V 	c #557F36",
"W 	c #5E7434",
"X 	c #645D45",
"Y 	c #746E43",
"Z 	c #6D733E",
"` 	c #597635",
" .	c #4B7D39",
"..	c #36594B",
"+.	c #518344",
"@.	c #71A933",
"#.	c #73AB32",
"$.	c #598D43",
"%.	c #96A3A8",
"&.	c #C7CAC5",
"*.	c #9B9F9A",
"=.	c #677478",
"-.	c #AA3B41",
";.	c #AE7A79",
">.	c #A3A3A6",
",.	c #8F8785",
"'.	c #60605E",
").	c #8E5B2D",
"!.	c #9D5C1C",
"~.	c #9F5D19",
"{.	c #A05D18",
"].	c #9B5C1D",
"^.	c #905A28",
"/.	c #945A27",
"(.	c #7F6138",
"_.	c #648042",
":.	c #6BA238",
"<.	c #447647",
"[.	c #436360",
"}.	c #7D878B",
"|.	c #808585",
"1.	c #4B7260",
"2.	c #3E7044",
"3.	c #7A424A",
"4.	c #7E4C41",
"5.	c #9D5D1B",
"6.	c #9B5C1C",
"7.	c #9F5D18",
"8.	c #9E5D19",
"9.	c #905C28",
"0.	c #538146",
"a.	c #2E604C",
"b.	c #447645",
"c.	c #588C40",
"d.	c #497C48",
"e.	c #365C6C",
"f.	c #617C91",
"g.	c #578764",
"h.	c #70A834",
"i.	c #689F39",
"j.	c #598E3F",
"k.	c #436E49",
"l.	c #6F5245",
"m.	c #915C27",
"n.	c #48764F",
"o.	c #669C3B",
"p.	c #71A934",
"q.	c #437649",
"r.	c #5C7A94",
"s.	c #457174",
"t.	c #6DA437",
"u.	c #70A735",
"v.	c #73683E",
"w.	c #905B29",
"x.	c #5C8C45",
"y.	c #598E42",
"z.	c #506D80",
"A.	c #45646F",
"B.	c #447745",
"C.	c #76693A",
"D.	c #9F5B17",
"E.	c #995517",
"F.	c #9E5A17",
"G.	c #9F5B18",
"H.	c #64973D",
"I.	c #61973E",
"J.	c #3D4B44",
"K.	c #464A3F",
"L.	c #427442",
"M.	c #689E3A",
"N.	c #6FA635",
"O.	c #786738",
"P.	c #7D3D0E",
"Q.	c #672509",
"R.	c #75360C",
"S.	c #9D5917",
"T.	c #9E5B18",
"U.	c #7E3C0E",
"V.	c #74360D",
"W.	c #9C5918",
"X.	c #8F5C2A",
"Y.	c #62953E",
"Z.	c #578C41",
"`.	c #484C39",
" +	c #396A46",
".+	c #598E40",
"++	c #76663A",
"@+	c #9B5717",
"#+	c #6E240A",
"$+	c #CE1A18",
"%+	c #8B1D0E",
"&+	c #955114",
"*+	c #9B5617",
"=+	c #6F230A",
"-+	c #CF1A17",
";+	c #821D0C",
">+	c #945115",
",+	c #8C5A2E",
"'+	c #38674A",
")+	c #494A3B",
"!+	c #71583E",
"~+	c #9D5B19",
"{+	c #75340C",
"]+	c #921C0E",
"^+	c #772C0C",
"/+	c #76330C",
"(+	c #941B0F",
"_+	c #742C0C",
":+	c #9A5717",
"<+	c #87592D",
"[+	c #4A4A3D",
"}+	c #715539",
"|+	c #965922",
"1+	c #7F5032",
"2+	c #96571E",
"3+	c #965B27",
"4+	c #9A5C1E",
"5+	c #8F5B32",
"6+	c #995C21",
"7+	c #895F3C",
"8+	c #8A5931",
"9+	c #7A533A",
"0+	c #855837",
"a+	c #9D5D1A",
"b+	c #81582F",
"c+	c #474B38",
"d+	c #684E3E",
"e+	c #9A5C1D",
"f+	c #8C805C",
"g+	c #B4AC76",
"h+	c #787762",
"i+	c #A39E70",
"j+	c #78735B",
"k+	c #BCB278",
"l+	c #757562",
"m+	c #BCB377",
"n+	c #8A8C6F",
"o+	c #BBB278",
"p+	c #A8A170",
"q+	c #915B28",
"r+	c #765135",
"s+	c #1F4344",
"t+	c #464A41",
"u+	c #414C3F",
"v+	c #22463B",
"w+	c #1F1E22",
"x+	c #2C2A33",
"y+	c #493F3F",
"z+	c #616558",
"A+	c #838365",
"B+	c #737A6A",
"C+	c #A8A272",
"D+	c #83886F",
"E+	c #B4AA73",
"F+	c #7F866F",
"G+	c #A7A071",
"H+	c #7D8269",
"I+	c #888663",
"J+	c #6F705C",
"K+	c #3E3E46",
"L+	c #2E2F3A",
"M+	c #1F1B1F",
"N+	c #20423D",
"O+	c #374E3F",
"P+	c #474D3C",
"Q+	c #21453E",
"R+	c #1F1A1D",
"S+	c #210905",
"T+	c #423A38",
"U+	c #785337",
"V+	c #737560",
"W+	c #858566",
"X+	c #59645C",
"Y+	c #6A6C56",
"Z+	c #445253",
"`+	c #646755",
" @	c #545C54",
".@	c #636756",
"+@	c #666B59",
"@@	c #808263",
"#@	c #878767",
"$@	c #71543F",
"%@	c #694B37",
"&@	c #211011",
"*@	c #1F191D",
"=@	c #1F4340",
"-@	c #46473F",
";@	c #1F2026",
">@	c #210804",
",@	c #1F191E",
"'@	c #464A43",
")@	c #827759",
"!@	c #A29E70",
"~@	c #908F6C",
"{@	c #C7BB79",
"]@	c #727968",
"^@	c #C2B879",
"/@	c #92926F",
"(@	c #B0A974",
"_@	c #9B9972",
":@	c #B2AB76",
"<@	c #999369",
"[@	c #975C23",
"}@	c #72513C",
"|@	c #1F1921",
"1@	c #1F2627",
"2@	c #1F3535",
"3@	c #243342",
"4@	c #1E1824",
"5@	c #210A07",
"6@	c #1D3439",
"7@	c #48553E",
"8@	c #985C1F",
"9@	c #985C20",
"0@	c #925C29",
"a@	c #915D2B",
"b@	c #85613F",
"c@	c #935B27",
"d@	c #845F3D",
"e@	c #905C2D",
"f@	c #8C5E35",
"g@	c #8C5C31",
"h@	c #8A5E36",
"i@	c #935C29",
"j@	c #7B5634",
"k@	c #1D2A34",
"l@	c #210805",
"m@	c #1E383B",
"n@	c #1D2C38",
"o@	c #201118",
"p@	c #1B1F2F",
"q@	c #1D242E",
"r@	c #925B24",
"s@	c #200D0E",
"t@	c #1E272D",
"u@	c #1D2F34",
"v@	c #200B0B",
"w@	c #1C3D47",
"x@	c #8B592A",
"y@	c #1E3639",
"z@	c #200C0C",
"A@	c #1F171A",
"B@	c #203A37",
"C@	c #210907",
"D@	c #21413B",
"E@	c #4C5244",
"F@	c #604A3F",
"G@	c #714B2E",
"H@	c #7E5230",
"I@	c #835634",
"J@	c #845731",
"K@	c #6C5141",
"L@	c #86572F",
"M@	c #855731",
"N@	c #7D5333",
"O@	c #734D2E",
"P@	c #644736",
"Q@	c #585245",
"R@	c #1D2431",
"S@	c #1F141D",
"T@	c #1F2529",
"U@	c #1F151A",
"V@	c #1E2834",
"W@	c #1C3139",
"X@	c #210D0E",
"Y@	c #1F1B22",
"Z@	c #244D46",
"`@	c #1E2F34",
" #	c #210E0E",
".#	c #1E2429",
"+#	c #22453D",
"@#	c #202D2B",
"##	c #213F3B",
"$#	c #254B42",
"%#	c #404A43",
"&#	c #204040",
"*#	c #210A08",
"=#	c #1F181B",
"-#	c #203430",
";#	c #1F2F33",
">#	c #4A4A3C",
",#	c #1F2728",
"'#	c #1F1B20",
")#	c #203431",
"!#	c #1F1F22",
"~#	c #484D3B",
"{#	c #203939",
"]#	c #1F2D30",
"^#	c #213C39",
"/#	c #210906",
"(#	c #1E2D31",
"_#	c #474C3D",
":#	c #3E4C47",
"<#	c #1F383A",
"[#	c #1F161A",
"}#	c #201215",
"|#	c #21403E",
"1#	c #1F181E",
"2#	c #1E1E24",
"3#	c #345243",
"4#	c #365246",
"5#	c #264B39",
"6#	c #204240",
"7#	c #213E37",
"8#	c #264C3C",
"                          .                                     ",
"                +         @ #           $                       ",
"                % &       * =           -                       ",
"                ; >       , ' )       ! ~ {                     ",
"              ] ^ / (   _ : < [       } | 1                     ",
"                2 3 4   5 6 7 ' 8   9 0 a b         c d         ",
"                e f g   h i j k l   m n o p       q r s         ",
"      t u       v w x y z A B k C D E F G H     I A J           ",
"    K L M N     O P Q R S T U V W X Y Z `  ...+.@.#.$.          ",
"    %.&.*.=.      -.;.>.,.'.).!.~.{.{.{.].^./.(._.:.<.          ",
"    [.}.|.1.2.    3.4.5.{.6.{.{.{.{.{.{.7.8.{.{.9.0.a.b.c.d.    ",
"      e.f.g.h.i.j.k.l.{.{.8.{.{.{.{.{.{.7.8.{.{.m.n.o.p.h.q.    ",
"        r.s.t.#.#.u.v.{.{.8.{.{.{.{.7.{.{.8.{.{.w.x.#.#.y.      ",
"        z.A.B.r #.h.C.{.D.E.F.{.{.{.8.7.G.E.F.~.w.H.i I.        ",
"        J.K.  L.M.N.O.G.P.Q.R.S.{.{.~.T.U.Q.V.W.X.Y.Z.          ",
"          `.     +.+++@+#+$+%+&+7.{.7.*+=+-+;+>+,+'+            ",
"          )+        !+~+{+]+^+@+8.7.{.D./+(+_+:+<+              ",
"          [+        }+8.|+1+2+3+4+5+6+7+8+9+0+a+b+              ",
"          c+        d+e+f+g+h+i+j+k+l+m+n+o+p+q+r+s+            ",
"          t+u+  v+w+x+y+z+A+B+C+D+E+F+G+H+I+J+K+L+M+N+          ",
"          O+P+Q+R+S+T+U+V+W+X+Y+Z+`+ @.@+@@@#@$@%@&@*@=@        ",
"            -@;@>@,@'@4+)@!@~@{@]@^@/@(@_@:@<@[@}@|@>@1@        ",
"          2@3@4@5@6@7@8@9@0@a@b@c@d@e@f@g@h@i@~.j@k@l@5@m@      ",
"        n@l@o@p@q@    r@8.{.{.{.{.8.{.{.8.{.{.~.    s@>@t@      ",
"        u@>@>@v@w@    x@7.{.{.{.{.a+{.{.8.{.{.!.  y@z@>@A@      ",
"        B@l@>@C@D@    E@F@G@H@I@J@K@L@M@N@O@P@Q@  R@S@>@,@      ",
"          T@U@V@        W@X@Y@Z@        `@ #.#      +#@###      ",
"            $#%#        &#*#=#          -#>@;#                  ",
"              >#        ,#>@'#          )#>@!#                  ",
"              ~#      {#C@>@]#          ^#/#>@(#                ",
"              _#:#    <#[#}#|#            1#C@2#                ",
"              3#4#        5#              6#7#8#                "};
