/* XPM */
static char * C:\Users\usuario\Documents\missionairy_xpm[] = {
"32 32 273 2",
"  	c None",
". 	c #607868",
"+ 	c #6B806B",
"@ 	c #878C72",
"# 	c #959274",
"$ 	c #959374",
"% 	c #989474",
"& 	c #8F8F73",
"* 	c #7D8870",
"= 	c #657F65",
"- 	c #A8A474",
"; 	c #949874",
"> 	c #7B866D",
", 	c #577862",
"' 	c #577962",
") 	c #7C866E",
"! 	c #9B9C73",
"~ 	c #BBB278",
"{ 	c #808B6B",
"] 	c #577662",
"^ 	c #B3AC76",
"/ 	c #A4A276",
"( 	c #818B6B",
"_ 	c #77806F",
": 	c #597863",
"< 	c #4C765B",
"[ 	c #487658",
"} 	c #587762",
"| 	c #76806E",
"1 	c #81886E",
"2 	c #A9A675",
"3 	c #C5BA7A",
"4 	c #89906D",
"5 	c #667B68",
"6 	c #808A6C",
"7 	c #838F6E",
"8 	c #8E9274",
"9 	c #979675",
"0 	c #989774",
"a 	c #999775",
"b 	c #959575",
"c 	c #909572",
"d 	c #7F8D69",
"e 	c #7A8070",
"f 	c #636A70",
"g 	c #C5948B",
"h 	c #A88681",
"i 	c #BE9189",
"j 	c #FDB19C",
"k 	c #F3AB99",
"l 	c #977E7C",
"m 	c #757173",
"n 	c #D29B8E",
"o 	c #FDB19D",
"p 	c #FFB29D",
"q 	c #F8AE9B",
"r 	c #BC9088",
"s 	c #6C6D71",
"t 	c #AB8882",
"u 	c #EFA998",
"v 	c #EEA998",
"w 	c #BE9287",
"x 	c #867978",
"y 	c #7C7575",
"z 	c #D79D90",
"A 	c #FAAF9B",
"B 	c #DA9F92",
"C 	c #96807B",
"D 	c #9F837D",
"E 	c #EDA998",
"F 	c #F1AA99",
"G 	c #FAB09C",
"H 	c #BD9087",
"I 	c #A0847E",
"J 	c #FEB29D",
"K 	c #EDA898",
"L 	c #DB9F94",
"M 	c #DFA094",
"N 	c #FCB09C",
"O 	c #A88482",
"P 	c #817975",
"Q 	c #F5AC9A",
"R 	c #DB9E94",
"S 	c #DA9E94",
"T 	c #F5AD9A",
"U 	c #C2928E",
"V 	c #D19A92",
"W 	c #B08B8B",
"X 	c #C4938F",
"Y 	c #FDB09A",
"Z 	c #FCAC94",
"` 	c #FDAD97",
" .	c #FEB29C",
"..	c #D99E92",
"+.	c #CC988D",
"@.	c #FDB19B",
"#.	c #FAB09B",
"$.	c #CE9891",
"%.	c #C1908D",
"&.	c #F59776",
"*.	c #FE8B6A",
"=.	c #FB8C6A",
"-.	c #F4A78C",
";.	c #F2AB99",
">.	c #EBA898",
",.	c #F49B7C",
"'.	c #F58F6B",
").	c #F59675",
"!.	c #FAAD95",
"~.	c #F8AD94",
"{.	c #FA8E6C",
"].	c #FF8A6A",
"^.	c #FC8C6B",
"/.	c #F6A98E",
"(.	c #EAA797",
"_.	c #EEA999",
":.	c #F9A88F",
"<.	c #FE8A6A",
"[.	c #F4A68A",
"}.	c #D1978E",
"|.	c #AE8382",
"1.	c #F7AA91",
"2.	c #F2A284",
"3.	c #F7A98F",
"4.	c #D29B90",
"5.	c #DB9E92",
"6.	c #FBAF97",
"7.	c #F79C7E",
"8.	c #F89575",
"9.	c #F7A184",
"0.	c #C37870",
"a.	c #F3866A",
"b.	c #BE8983",
"c.	c #FEB19D",
"d.	c #FCB19C",
"e.	c #A18380",
"f.	c #99817D",
"g.	c #F9AF9B",
"h.	c #E7A697",
"i.	c #D67C6D",
"j.	c #B97A73",
"k.	c #D59B91",
"l.	c #B18C83",
"m.	c #FAAF9C",
"n.	c #F6AD9A",
"o.	c #C87970",
"p.	c #C17870",
"q.	c #F9AE9B",
"r.	c #DA9F93",
"s.	c #6C756D",
"t.	c #4A7074",
"u.	c #316167",
"v.	c #9C807F",
"w.	c #E7A596",
"x.	c #C28D86",
"y.	c #C2796F",
"z.	c #BF8B85",
"A.	c #F4AC9A",
"B.	c #BD9188",
"C.	c #5D6D6E",
"D.	c #788B8D",
"E.	c #ACAEAD",
"F.	c #A8B0AB",
"G.	c #DAD5D0",
"H.	c #969CA3",
"I.	c #ABB2B1",
"J.	c #A4ABA9",
"K.	c #91979E",
"L.	c #71848A",
"M.	c #5D6C6E",
"N.	c #AB8783",
"O.	c #D89E92",
"P.	c #F4AC99",
"Q.	c #F8AF9B",
"R.	c #F3AC9A",
"S.	c #E0A194",
"T.	c #BA8E88",
"U.	c #777673",
"V.	c #919E9A",
"W.	c #F3E9E0",
"X.	c #FFF3E8",
"Y.	c #F8EEE4",
"Z.	c #E0DAD4",
"`.	c #597A7D",
" +	c #B3B6B4",
".+	c #FCF1E6",
"++	c #FDF1E7",
"@+	c #F2E9E0",
"#+	c #B7B9B7",
"$+	c #62746C",
"%+	c #927A7D",
"&+	c #BD8F8D",
"*+	c #B98E8D",
"=+	c #BE908D",
"-+	c #C7938E",
";+	c #BF918D",
">+	c #CF9890",
",+	c #7B7772",
"'+	c #D4D0CB",
")+	c #EAE2DB",
"!+	c #F4EAE1",
"~+	c #CAC7C7",
"{+	c #728792",
"]+	c #3C735C",
"^+	c #446F70",
"/+	c #A5AAAF",
"(+	c #E9E2DB",
"_+	c #EEE5DE",
":+	c #F7EDE3",
"<+	c #829396",
"[+	c #C09389",
"}+	c #ECA797",
"|+	c #E1A294",
"1+	c #5F726A",
"2+	c #DBD6D0",
"3+	c #E4DED8",
"4+	c #A8ADB3",
"5+	c #C8C7C4",
"6+	c #839296",
"7+	c #507773",
"8+	c #BBBDBD",
"9+	c #DED9D4",
"0+	c #A9AFB6",
"a+	c #F2E9E1",
"b+	c #95A1A5",
"c+	c #927B7C",
"d+	c #E2A396",
"e+	c #F3AA99",
"f+	c #A58185",
"g+	c #D19A90",
"h+	c #9D8081",
"i+	c #99A1A3",
"j+	c #BCBEBB",
"k+	c #A3A9A9",
"l+	c #D0CDCA",
"m+	c #678581",
"n+	c #BB8F88",
"o+	c #AF8787",
"p+	c #E4A394",
"q+	c #BA8F88",
"r+	c #5A7366",
"s+	c #766F74",
"t+	c #767276",
"u+	c #566C6B",
"v+	c #D29990",
"w+	c #EBA798",
"x+	c #DCA094",
"y+	c #C69E9A",
"z+	c #B2A5A7",
"A+	c #877D88",
"B+	c #6D736F",
"C+	c #798994",
"D+	c #BFBFC0",
"E+	c #DDD6D1",
"F+	c #ECE4DC",
"G+	c #C4BFBF",
"H+	c #E1A497",
"I+	c #D69C91",
"J+	c #4E6A6E",
"K+	c #BE928F",
"L+	c #B99898",
"M+	c #868891",
"N+	c #677472",
"O+	c #CB978D",
"P+	c #E4A496",
"Q+	c #66766B",
"R+	c #947E7D",
"S+	c #F0AA98",
"T+	c #E8A696",
"U+	c #677270",
"V+	c #767473",
"W+	c #9B877B",
"X+	c #66736F",
"                                                                ",
"                    . + @ # $ % & * =                           ",
"                - ; > ,           ' ) ! ~ {                     ",
"              ] ^ / ( _ : < [ < } | 1 2 3 4                     ",
"                  5 6 7 8 9 0 a b c d e                         ",
"                                                                ",
"                            f                                   ",
"                            g h                                 ",
"                          i j k l                               ",
"                      m n o p p q r s                           ",
"                    t u p p p p p p v w x                       ",
"                y z j p p p p p p p p p A B C                   ",
"              D E p p p p p p p p p A F p p G H                 ",
"            I q p J p p J p p j K o L M p p p N O               ",
"          P Q p p R S T U p p J V W X N Y Z `  ...              ",
"          +.p  .@.#.$.%.K p p p p J p Y &.*.=.-.;.              ",
"          >.Y ,.'.).!.p p p p J p p p ~.{.].^./.(.              ",
"          _.:.<.].*.[.p p J }.|.;.p p p 1.2.3. .4.              ",
"          5.6.7.8.9.@.p p T 0.a.b.c.p p p p p d.e.              ",
"          f.g.p @.p p p p h.i.].j.A p p p p p k.                ",
"            l.m.p p p p p n.o.].p.q.p p p J r.s.      t.        ",
"        u.    v.w.c.p p p c.x.y.z.o p p A.B.C.D.E.F.G.H.        ",
"        I.J.K.L.M.N.O.F d.p d.P.Q.R.S.T.U.  V.W.X.Y.Z.`.        ",
"         +.+++@+#+    $+%+&+*+=+-+;+>+,+    '+)+!+~+{+]+        ",
"        ^+/+(+_+:+<+    [+j d.o p p }+|+1+  2+3+4+5+6+          ",
"        7+8+9+0+a+b+  c+d+e+p p p p f+g+h+  i+j+                ",
"              k+l+m+  n+o+p+p p p j q+r+s+                      ",
"                      t+u+v+w+x+y+z+A+B+                        ",
"                          C+D+E+F+G+H+I+                        ",
"                          J+K+L+M+N+O+P+Q+                      ",
"                            R+S+T+U+                            ",
"                              V+W+X+                            "};
